<mxfile host="app.diagrams.net" modified="2024-07-12T16:31:52.930Z" agent="Mozilla/5.0 (X11; Linux x86_64; rv:128.0) Gecko/20100101 Firefox/128.0" etag="Ef0L-tNoOdZwBNd7hTSV" version="24.6.3" type="github">
  <diagram name="Page-1" id="zijforfVTDipKxwTgQrf">
    <mxGraphModel dx="1706" dy="1080" grid="1" gridSize="10" guides="1" tooltips="1" connect="1" arrows="1" fold="1" page="1" pageScale="1" pageWidth="850" pageHeight="1100" math="0" shadow="0">
      <root>
        <mxCell id="0" />
        <mxCell id="1" parent="0" />
        <mxCell id="0Zz2wmmkNfNMOquflTHE-21" style="edgeStyle=none;curved=0;rounded=0;orthogonalLoop=1;jettySize=auto;html=1;entryX=0.5;entryY=0;entryDx=0;entryDy=0;fontSize=12;startSize=8;endSize=8;" edge="1" parent="1" source="0Zz2wmmkNfNMOquflTHE-10" target="0Zz2wmmkNfNMOquflTHE-18">
          <mxGeometry relative="1" as="geometry">
            <Array as="points">
              <mxPoint x="-290" y="207" />
            </Array>
          </mxGeometry>
        </mxCell>
        <mxCell id="0Zz2wmmkNfNMOquflTHE-22" style="edgeStyle=none;curved=0;rounded=0;orthogonalLoop=1;jettySize=auto;html=1;entryX=0.5;entryY=0;entryDx=0;entryDy=0;fontSize=12;startSize=8;endSize=8;exitX=1;exitY=0.5;exitDx=0;exitDy=0;" edge="1" parent="1" source="0Zz2wmmkNfNMOquflTHE-10" target="0Zz2wmmkNfNMOquflTHE-19">
          <mxGeometry relative="1" as="geometry">
            <Array as="points">
              <mxPoint x="160" y="207" />
            </Array>
          </mxGeometry>
        </mxCell>
        <mxCell id="0Zz2wmmkNfNMOquflTHE-10" value="&lt;p style=&quot;margin: 4px 0px 0px; text-align: center; line-height: 120%;&quot;&gt;&lt;i&gt;&lt;span style=&quot;background-color: rgb(51, 255, 255);&quot;&gt;&amp;lt;&amp;lt;Interface&amp;gt;&amp;gt;&lt;/span&gt;&lt;/i&gt;&lt;b&gt;&lt;br&gt;Person&lt;/b&gt;&lt;/p&gt;&lt;hr size=&quot;1&quot; style=&quot;border-style:solid;&quot;&gt;&lt;p style=&quot;margin:0px;margin-left:4px;&quot;&gt;&lt;span style=&quot;background-color: rgb(255, 0, 0);&quot;&gt;-&lt;/span&gt;&amp;nbsp; _name : string&lt;/p&gt;&lt;p style=&quot;margin:0px;margin-left:4px;&quot;&gt;&lt;span style=&quot;background-color: rgb(255, 0, 0);&quot;&gt;&lt;/span&gt; &lt;span style=&quot;background-color: rgb(255, 0, 0);&quot;&gt;-&lt;/span&gt;&amp;nbsp; _currentRoom : Room*&lt;br&gt;&lt;/p&gt;&lt;hr size=&quot;1&quot; style=&quot;border-style:solid;&quot;&gt;&lt;p style=&quot;margin:0px;margin-left:4px;&quot;&gt;&lt;font style=&quot;font-size: 12px; background-color: rgb(102, 255, 102);&quot;&gt;+&lt;/font&gt; method1(Type): Type&lt;br&gt;&lt;/p&gt;" style="verticalAlign=top;align=left;overflow=fill;html=1;whiteSpace=wrap;" vertex="1" parent="1">
          <mxGeometry x="-170" y="134.5" width="200" height="145.5" as="geometry" />
        </mxCell>
        <mxCell id="0Zz2wmmkNfNMOquflTHE-24" style="edgeStyle=none;curved=0;rounded=0;orthogonalLoop=1;jettySize=auto;html=1;entryX=0.5;entryY=0;entryDx=0;entryDy=0;fontSize=12;startSize=8;endSize=8;" edge="1" parent="1" source="0Zz2wmmkNfNMOquflTHE-11" target="0Zz2wmmkNfNMOquflTHE-13">
          <mxGeometry relative="1" as="geometry">
            <Array as="points">
              <mxPoint x="450" y="210" />
            </Array>
          </mxGeometry>
        </mxCell>
        <mxCell id="0Zz2wmmkNfNMOquflTHE-25" style="edgeStyle=none;curved=0;rounded=0;orthogonalLoop=1;jettySize=auto;html=1;entryX=0.5;entryY=0;entryDx=0;entryDy=0;fontSize=12;startSize=8;endSize=8;" edge="1" parent="1" source="0Zz2wmmkNfNMOquflTHE-11" target="0Zz2wmmkNfNMOquflTHE-16">
          <mxGeometry relative="1" as="geometry">
            <Array as="points">
              <mxPoint x="835" y="210" />
            </Array>
          </mxGeometry>
        </mxCell>
        <mxCell id="0Zz2wmmkNfNMOquflTHE-11" value="&lt;p style=&quot;margin:0px;margin-top:4px;text-align:center;&quot;&gt;&lt;i&gt;&lt;span style=&quot;background-color: rgb(51, 255, 255);&quot;&gt;&amp;lt;&amp;lt;Interface&amp;gt;&amp;gt;&lt;/span&gt;&lt;/i&gt;&lt;b&gt;&lt;br&gt;Room&lt;br&gt;&lt;/b&gt;&lt;/p&gt;&lt;hr size=&quot;1&quot; style=&quot;border-style:solid;&quot;&gt;&lt;p style=&quot;margin:0px;margin-left:4px;&quot;&gt;&lt;span style=&quot;background-color: rgb(255, 0, 0);&quot;&gt;-&lt;/span&gt; _listOccupant : vecteur&amp;lt;Person*&amp;gt;&lt;br&gt;&lt;/p&gt;&lt;hr size=&quot;1&quot; style=&quot;border-style:solid;&quot;&gt;&lt;p style=&quot;margin:0px;margin-left:4px;&quot;&gt;&lt;font style=&quot;font-size: 12px; background-color: rgb(102, 255, 102);&quot;&gt;+&lt;/font&gt; bool canEnter(Person* Human)&lt;/p&gt;&lt;p style=&quot;margin:0px;margin-left:4px;&quot;&gt;&lt;font style=&quot;font-size: 12px; background-color: rgb(102, 255, 102);&quot;&gt;+&lt;/font&gt; void enter(Person* Human);&lt;/p&gt;&lt;p style=&quot;margin:0px;margin-left:4px;&quot;&gt;&lt;font style=&quot;font-size: 12px; background-color: rgb(102, 255, 102);&quot;&gt;+&lt;/font&gt; void exit(Person* Human);&lt;/p&gt;&lt;p style=&quot;margin:0px;margin-left:4px;&quot;&gt;&lt;font style=&quot;font-size: 12px; background-color: rgb(102, 255, 102);&quot;&gt;+&lt;/font&gt; void printOccupant();&lt;br&gt;&lt;/p&gt;&lt;p style=&quot;margin:0px;margin-left:4px;&quot;&gt;&lt;br&gt;&lt;/p&gt;&lt;p style=&quot;margin:0px;margin-left:4px;&quot;&gt;&lt;br&gt;&lt;/p&gt;" style="verticalAlign=top;align=left;overflow=fill;html=1;whiteSpace=wrap;" vertex="1" parent="1">
          <mxGeometry x="540" y="134.5" width="200" height="150" as="geometry" />
        </mxCell>
        <mxCell id="0Zz2wmmkNfNMOquflTHE-12" style="edgeStyle=none;curved=1;rounded=0;orthogonalLoop=1;jettySize=auto;html=1;exitX=0.5;exitY=1;exitDx=0;exitDy=0;fontSize=12;startSize=8;endSize=8;" edge="1" parent="1" source="0Zz2wmmkNfNMOquflTHE-10" target="0Zz2wmmkNfNMOquflTHE-10">
          <mxGeometry relative="1" as="geometry" />
        </mxCell>
        <mxCell id="0Zz2wmmkNfNMOquflTHE-13" value="&lt;p style=&quot;margin:0px;margin-top:4px;text-align:center;&quot;&gt;&lt;b&gt;Class&lt;/b&gt;&lt;/p&gt;&lt;hr size=&quot;1&quot; style=&quot;border-style:solid;&quot;&gt;&lt;p style=&quot;margin:0px;margin-left:4px;&quot;&gt;&lt;font style=&quot;font-size: 12px; background-color: rgb(102, 255, 102);&quot;&gt;+&lt;/font&gt; field: Type&lt;/p&gt;&lt;hr size=&quot;1&quot; style=&quot;border-style:solid;&quot;&gt;&lt;p style=&quot;margin:0px;margin-left:4px;&quot;&gt;&lt;font style=&quot;font-size: 12px; background-color: rgb(102, 255, 102);&quot;&gt;+&lt;/font&gt; method(): Type&lt;/p&gt;" style="verticalAlign=top;align=left;overflow=fill;html=1;whiteSpace=wrap;" vertex="1" parent="1">
          <mxGeometry x="360" y="320" width="180" height="160" as="geometry" />
        </mxCell>
        <mxCell id="0Zz2wmmkNfNMOquflTHE-16" value="&lt;p style=&quot;margin:0px;margin-top:4px;text-align:center;&quot;&gt;&lt;b&gt;Class&lt;/b&gt;&lt;/p&gt;&lt;hr size=&quot;1&quot; style=&quot;border-style:solid;&quot;&gt;&lt;p style=&quot;margin:0px;margin-left:4px;&quot;&gt;&lt;font style=&quot;font-size: 12px; background-color: rgb(102, 255, 102);&quot;&gt;+&lt;/font&gt; field: Type&lt;/p&gt;&lt;hr size=&quot;1&quot; style=&quot;border-style:solid;&quot;&gt;&lt;p style=&quot;margin:0px;margin-left:4px;&quot;&gt;&lt;font style=&quot;font-size: 12px; background-color: rgb(102, 255, 102);&quot;&gt;+&lt;/font&gt; method(): Type&lt;/p&gt;" style="verticalAlign=top;align=left;overflow=fill;html=1;whiteSpace=wrap;" vertex="1" parent="1">
          <mxGeometry x="740" y="320" width="190" height="160" as="geometry" />
        </mxCell>
        <mxCell id="0Zz2wmmkNfNMOquflTHE-18" value="&lt;p style=&quot;margin:0px;margin-top:4px;text-align:center;&quot;&gt;&lt;b&gt;Class&lt;br&gt;StaffMember&lt;br&gt;&lt;/b&gt;&lt;/p&gt;&lt;hr size=&quot;1&quot; style=&quot;border-style:solid;&quot;&gt;&lt;p style=&quot;margin:0px;margin-left:4px;&quot;&gt;&lt;br&gt;&lt;/p&gt;&lt;hr size=&quot;1&quot; style=&quot;border-style:solid;&quot;&gt;&lt;p style=&quot;margin:0px;margin-left:4px;&quot;&gt;&lt;font style=&quot;font-size: 12px; background-color: rgb(102, 255, 102);&quot;&gt;+&lt;/font&gt; void sign(&lt;span style=&quot;background-color: rgb(255, 255, 51);&quot;&gt;Form&lt;/span&gt;* formulaire)&lt;br&gt;&lt;/p&gt;" style="verticalAlign=top;align=left;overflow=fill;html=1;whiteSpace=wrap;" vertex="1" parent="1">
          <mxGeometry x="-390" y="320" width="200" height="160" as="geometry" />
        </mxCell>
        <mxCell id="0Zz2wmmkNfNMOquflTHE-19" value="&lt;p style=&quot;margin:0px;margin-top:4px;text-align:center;&quot;&gt;&lt;b&gt;Class&lt;br&gt;Student&lt;br&gt;&lt;/b&gt;&lt;/p&gt;&lt;hr size=&quot;1&quot; style=&quot;border-style:solid;&quot;&gt;&lt;p style=&quot;margin:0px;margin-left:4px;&quot;&gt;&lt;span style=&quot;background-color: rgb(255, 0, 0);&quot;&gt;-&lt;/span&gt;&amp;nbsp; _subscribedCourse:&lt;span style=&quot;background-color: rgb(255, 255, 51);&quot;&gt;Course*&lt;/span&gt;&lt;/p&gt;&lt;hr size=&quot;1&quot; style=&quot;border-style:solid;&quot;&gt;&lt;p style=&quot;margin:0px;margin-left:4px;&quot;&gt;&lt;font style=&quot;font-size: 12px; background-color: rgb(102, 255, 102);&quot;&gt;+&lt;/font&gt; void attendClass(&lt;span style=&quot;background-color: rgb(255, 255, 51);&quot;&gt;ClassRoom&lt;/span&gt;* room)&lt;br&gt;&lt;/p&gt;&lt;p style=&quot;margin:0px;margin-left:4px;&quot;&gt;&lt;font style=&quot;font-size: 12px; background-color: rgb(102, 255, 102);&quot;&gt;+&lt;span style=&quot;background-color: rgb(255, 255, 255);&quot;&gt; void exitClass()&lt;/span&gt;&lt;/font&gt;&lt;/p&gt;&lt;p style=&quot;margin:0px;margin-left:4px;&quot;&gt;&lt;font style=&quot;font-size: 12px; background-color: rgb(102, 255, 102);&quot;&gt;+&lt;span style=&quot;background-color: rgb(255, 255, 255);&quot;&gt; void graduate(&lt;span style=&quot;background-color: rgb(255, 255, 51);&quot;&gt;Course&lt;/span&gt;* cour)&lt;br&gt;&lt;/span&gt;&lt;/font&gt;&lt;/p&gt;" style="verticalAlign=top;align=left;overflow=fill;html=1;whiteSpace=wrap;" vertex="1" parent="1">
          <mxGeometry x="50" y="320" width="220" height="160" as="geometry" />
        </mxCell>
        <mxCell id="0Zz2wmmkNfNMOquflTHE-26" value="" style="endArrow=none;dashed=1;html=1;dashPattern=1 3;strokeWidth=2;rounded=0;fontSize=12;startSize=8;endSize=8;curved=1;" edge="1" parent="1">
          <mxGeometry width="50" height="50" relative="1" as="geometry">
            <mxPoint x="440" y="350" as="sourcePoint" />
            <mxPoint x="490" y="300" as="targetPoint" />
          </mxGeometry>
        </mxCell>
        <mxCell id="0Zz2wmmkNfNMOquflTHE-28" value="" style="endArrow=none;dashed=1;html=1;strokeWidth=5;rounded=0;fontSize=12;startSize=8;endSize=8;curved=1;exitX=1;exitY=0;exitDx=0;exitDy=0;entryX=0;entryY=0;entryDx=0;entryDy=0;" edge="1" parent="1" source="0Zz2wmmkNfNMOquflTHE-10" target="0Zz2wmmkNfNMOquflTHE-11">
          <mxGeometry width="50" height="50" relative="1" as="geometry">
            <mxPoint x="330" y="160" as="sourcePoint" />
            <mxPoint x="380" y="110" as="targetPoint" />
            <Array as="points">
              <mxPoint x="280" y="80" />
            </Array>
          </mxGeometry>
        </mxCell>
      </root>
    </mxGraphModel>
  </diagram>
</mxfile>
